#!OML:ASF H:\ManfredETheater\Project 1\Capture day 1\Session 1\subject.ASF
:FULLY-SPECIFIED
:DEGREES
124
root 1.67918 17.1032 34.1233 -175.498 -4.28422 179.071
lowerback 0.301422 -0.879364 -2.39795
upperback -3.71274 -1.31833 1.44262
thorax -3.90889 -0.608114 2.88494
lowerneck -19.4204 -1.00419 -2.64424
upperneck 23.9669 -1.59494 1.48405
head 10.9985 -1.02108 0.696009
rclavicle 1.97294e-014 5.1684e-015
rhumerus -37.2197 -7.95993 -80.65
rradius 28.5648
rwrist 3.85546
rhand -18.7219 -11.2544
rfingers 7.12502
rthumb 7.57357 -41.0988
lclavicle 1.97294e-014 5.1684e-015
lhumerus -33.0939 5.5692 88.5593
lradius 26.5374
lwrist -17.8428
lhand -10.1092 10.1617
lfingers 7.12502
lthumb 15.8785 39.5306
rfemur -13.0138 -0.807232 16.5093
rtibia 34.383
rfoot -22.0217 -12.7684
rtoes 5.56511
lfemur -15.9236 -4.54288 -18.6934
ltibia 36.6914
lfoot -22.1151 2.63006
ltoes 0.819699
125
root 1.67704 17.1026 34.1179 -175.437 -4.27228 179.048
lowerback 0.32128 -0.872136 -2.39357
upperback -3.70571 -1.30831 1.43466
thorax -3.91372 -0.603032 2.87419
lowerneck -19.4313 -0.992725 -2.63892
upperneck 24.0128 -1.58711 1.49203
head 11.0175 -1.01765 0.6989
rclavicle 1.30204e-014 -8.34896e-015
rhumerus -37.2062 -7.98359 -80.6503
rradius 28.5687
rwrist 3.85668
rhand -18.7195 -11.2548
rfingers 7.12502
rthumb 7.57595 -41.0991
lclavicle 1.30204e-014 -8.34896e-015
lhumerus -33.1169 5.57051 88.5516
lradius 26.5385
lwrist -17.8289
lhand -10.0919 10.1465
lfingers 7.12502
lthumb 15.8951 39.5142
rfemur -13.0747 -0.80976 16.4775
rtibia 34.4109
rfoot -22.0492 -12.767
rtoes 5.5318
lfemur -15.9656 -4.53405 -18.7218
ltibia 36.6888
lfoot -22.139 2.63302
ltoes 0.85236
126
root 1.67477 17.1019 34.1126 -175.375 -4.25483 179.029
lowerback 0.333827 -0.862987 -2.38181
upperback -3.68625 -1.29468 1.42532
thorax -3.90185 -0.59653 2.85734
lowerneck -19.4528 -0.983584 -2.63145
upperneck 24.0479 -1.58031 1.49742
head 11.0346 -1.01402 0.700412
rclavicle 1.08338e-014 -2.10712e-014
rhumerus -37.1741 -8.01383 -80.6549
rradius 28.5762
rwrist 3.85673
rhand -18.7189 -11.2331
rfingers 7.12502
rthumb 7.57649 -41.0774
lclavicle 1.08338e-014 -2.10712e-014
lhumerus -33.1156 5.56704 88.5462
lradius 26.5357
lwrist -17.8147
lhand -10.0854 10.1339
lfingers 7.12502
lthumb 15.9014 39.501
rfemur -13.1387 -0.808175 16.4481
rtibia 34.439
rfoot -22.0753 -12.7662
rtoes 5.50038
lfemur -16.0108 -4.51765 -18.7482
ltibia 36.6897
lfoot -22.1632 2.63522
ltoes 0.888136
127
root 1.67237 17.1012 34.1076 -175.313 -4.23678 179.013
lowerback 0.341895 -0.854089 -2.36315
upperback -3.65734 -1.28055 1.41526
thorax -3.87774 -0.590101 2.83557
lowerneck -19.4705 -0.974978 -2.62354
upperneck 24.0686 -1.57314 1.50312
head 11.0455 -1.0096 0.702124
rclavicle -1.54307e-014 2.38542e-015
rhumerus -37.1307 -8.04373 -80.6645
rradius 28.5858
rwrist 3.85348
rhand -18.7206 -11.177
rfingers 7.12502
rthumb 7.57483 -41.0213
lclavicle -1.54307e-014 2.38542e-015
lhumerus -33.0977 5.56167 88.542
lradius 26.5305
lwrist -17.8019
lhand -10.087 10.1271
lfingers 7.12502
lthumb 15.8999 39.4944
rfemur -13.2026 -0.805627 16.4218
rtibia 34.4667
rfoot -22.0981 -12.7682
rtoes 5.45875
lfemur -16.0571 -4.49667 -18.772
ltibia 36.6939
lfoot -22.1883 2.63385
ltoes 0.922177
128
root 1.66986 17.1005 34.1027 -175.254 -4.22182 178.999
lowerback 0.351665 -0.846491 -2.33929
upperback -3.62195 -1.26761 1.40563
thorax -3.84785 -0.584407 2.81128
lowerneck -19.4885 -0.96728 -2.61426
upperneck 24.0795 -1.56568 1.50579
head 11.0528 -1.00487 0.702613
rclavicle 1.77912e-014 -6.75868e-015
rhumerus -37.08 -8.06931 -80.6787
rradius 28.601
rwrist 3.84438
rhand -18.7236 -11.1085
rfingers 7.12502
rthumb 7.57197 -40.9529
lclavicle 1.77912e-014 -6.75868e-015
lhumerus -33.068 5.55575 88.5394
lradius 26.5229
lwrist -17.792
lhand -10.1016 10.1202
lfingers 7.12502
lthumb 15.8858 39.4886
rfemur -13.2642 -0.803062 16.3992
rtibia 34.4932
rfoot -22.1192 -12.7735
rtoes 5.41893
lfemur -16.1041 -4.47142 -18.7928
ltibia 36.7005
lfoot -22.2139 2.62819
ltoes 0.951473
129
root 1.66719 17.0998 34.0976 -175.197 -4.2153 178.988
lowerback 0.379493 -0.841799 -2.31449
upperback -3.59139 -1.25893 1.39971
thorax -3.83288 -0.580539 2.79094
lowerneck -19.496 -0.95951 -2.60648
upperneck 24.0865 -1.55642 1.50232
head 11.0565 -1.00038 0.701423
rclavicle -7.57867e-015 2.0276e-014
rhumerus -37.0411 -8.08074 -80.6912
rradius 28.623
rwrist 3.83195
rhand -18.7264 -11.0339
rfingers 7.12502
rthumb 7.56929 -40.8784
lclavicle -7.57867e-015 2.0276e-014
lhumerus -33.0459 5.55891 88.539
lradius 26.5136
lwrist -17.7898
lhand -10.1223 10.1146
lfingers 7.12502
lthumb 15.8658 39.4846
rfemur -13.3194 -0.804578 16.3796
rtibia 34.5175
rfoot -22.1388 -12.7827
rtoes 5.37624
lfemur -16.1494 -4.44615 -18.8111
ltibia 36.7085
lfoot -22.2403 2.61531
ltoes 0.981208
130
root 1.66436 17.0991 34.0922 -175.144 -4.22176 178.977
lowerback 0.427993 -0.842152 -2.29299
upperback -3.56918 -1.25767 1.39826
thorax -3.83768 -0.579897 2.77793
lowerneck -19.4846 -0.950121 -2.6008
upperneck 24.0901 -1.5435 1.49177
head 11.0552 -0.99574 0.698583
rclavicle 2.3233e-015 -7.55382e-015
rhumerus -37.0215 -8.06699 -80.7041
rradius 28.6555
rwrist 3.80493
rhand -18.7313 -10.9858
rfingers 7.12502
rthumb 7.56453 -40.8306
lclavicle 2.3233e-015 -7.55382e-015
lhumerus -33.0393 5.57193 88.5416
lradius 26.5043
lwrist -17.7922
lhand -10.142 10.1138
lfingers 7.12502
lthumb 15.8469 39.4853
rfemur -13.3652 -0.812388 16.3602
rtibia 34.5393
rfoot -22.1601 -12.7963
rtoes 5.3383
lfemur -16.191 -4.42565 -18.8297
ltibia 36.7169
lfoot -22.2673 2.5956
ltoes 1.00537
131
root 1.66129 17.0984 34.0863 -175.097 -4.24466 178.964
lowerback 0.494467 -0.848721 -2.2719
upperback -3.55244 -1.26513 1.39979
thorax -3.85774 -0.583285 2.76904
lowerneck -19.4568 -0.939613 -2.5962
upperneck 24.0896 -1.52828 1.47622
head 11.0491 -0.991099 0.694471
rclavicle -1.4238e-014 -3.57812e-015
rhumerus -37.017 -8.03115 -80.7194
rradius 28.6967
rwrist 3.76731
rhand -18.7375 -10.9752
rfingers 7.12502
rthumb 7.55854 -40.8202
lclavicle -1.4238e-014 -3.57812e-015
lhumerus -33.0448 5.59439 88.5457
lradius 26.4939
lwrist -17.7998
lhand -10.1653 10.1131
lfingers 7.12502
lthumb 15.8244 39.4864
rfemur -13.3974 -0.830979 16.3412
rtibia 34.558
rfoot -22.1841 -12.8129
rtoes 5.30118
lfemur -16.2266 -4.41315 -18.8485
ltibia 36.7252
lfoot -22.2955 2.56986
ltoes 1.02173
132
root 1.65805 17.0977 34.08 -175.053 -4.27673 178.953
lowerback 0.569821 -0.858724 -2.25085
upperback -3.53618 -1.27719 1.40401
thorax -3.88299 -0.58881 2.76334
lowerneck -19.4198 -0.928956 -2.5925
upperneck 24.084 -1.51169 1.45669
head 11.0393 -0.986469 0.689301
rclavicle 2.60905e-015 1.31198e-014
rhumerus -37.0174 -7.97847 -80.7373
rradius 28.7413
rwrist 3.72464
rhand -18.7437 -10.9992
rfingers 7.12502
rthumb 7.55255 -40.8443
lclavicle 2.60905e-015 1.31198e-014
lhumerus -33.0527 5.62516 88.5519
lradius 26.4825
lwrist -17.812
lhand -10.1839 10.1183
lfingers 7.12502
lthumb 15.8066 39.493
rfemur -13.4217 -0.855596 16.3232
rtibia 34.5741
rfoot -22.2093 -12.8304
rtoes 5.26606
lfemur -16.2582 -4.40667 -18.8665
ltibia 36.7333
lfoot -22.3229 2.54226
ltoes 1.02931
